<?xml version="1.0" encoding="utf-8"?>
<!-- Generator: Adobe Illustrator 19.1.0, SVG Export Plug-In . SVG Version: 6.00 Build 0)  -->
<svg version="1.1" id="Layer_1" xmlns="http://www.w3.org/2000/svg" xmlns:xlink="http://www.w3.org/1999/xlink" x="0px" y="0px"
	 viewBox="0 0 792 612" style="enable-background:new 0 0 792 612;" xml:space="preserve">
<style type="text/css">
	.st0{fill:#939598;}
	.st1{fill:#58595B;}
	.st2{fill:url(#SVGID_1_);}
	.st3{fill:#FFFFFF;}
	.st4{fill:#5ECAE5;}
</style>
<g>
	<path class="st0" d="M312.2,351c5.7,0,8-1.9,8-5.1c0-3.4-2.7-5.2-9.3-5.7l-19.4-1.6c-8.9-0.7-13.8-3.9-13.8-10.8
		c0-7.8,6.3-10.7,14.2-10.7h32.1v5.7h-32.7c-4.6,0-7.2,1.4-7.2,4.8c0,3.1,2.1,4.7,9,5.2l18.7,1.5c9.3,0.8,14.9,3.7,14.9,11.3
		c0,6.6-4.4,11.1-15,11.1h-34.5V351H312.2z"/>
	<path class="st0" d="M402.1,336.9c0,15.8-9.4,20.4-27.5,20.4c-18.1,0-27.5-4.6-27.5-20.4c0-15.7,9.4-20.3,27.5-20.3
		C392.7,316.6,402.1,321.2,402.1,336.9z M395.5,336.9c0-12.3-7.2-14.3-21-14.3c-13.7,0-20.9,2-20.9,14.3c0,12.4,7.2,14.3,20.9,14.3
		C388.3,351.2,395.5,349.3,395.5,336.9z"/>
	<path class="st0" d="M424.6,317.1h6.4v20.7c0,10.4,3.9,13.3,17.8,13.3c14,0,17.8-2.8,17.8-13.3v-20.7h6.4v20.7
		c0,14.2-6.5,19.5-24.2,19.5c-17.5,0-24.2-5.2-24.2-19.5V317.1z"/>
	<path class="st0" d="M497.6,317.1h34.1c9.7,0,15,4.7,15,12.1c0,5.7-3.2,9.3-8.5,10.6c5.2,1.5,7.5,4.9,7.5,9.3v7.6h-6.6V349
		c0-3.2-2-6.2-7.6-6.2h-27.5v13.9h-6.4V317.1z M532.2,337.1c6,0,8-3.9,8-7.2c0-3.2-1.9-7.1-8-7.1h-28.2v14.3H532.2z"/>
	<path class="st0" d="M618.2,323.3H587c-10.1,0-12.3,4.6-12.3,13.6c0,9,2.3,13.5,12.3,13.5h31.2v6.3H587c-13.7,0-18.9-6.6-18.9-19.8
		c0-13.1,5.1-19.8,18.9-19.8h31.2V323.3z"/>
	<path class="st0" d="M657,323.2c-8.8,0-11.9,3.7-12.4,10.9h42.8v5.7h-42.8c0.5,7.1,3.6,10.8,12.4,10.8h31.2v6.1H657
		c-13.8,0-18.9-6.7-18.9-19.8s5.1-19.8,18.9-19.8h31.2v6.1H657z"/>
</g>
<g>
	<path class="st1" d="M311,268.6c8.1,0,12.7,5,12.7,11.5c0,6.4-4.6,11.5-12.7,11.5h-28.8V306h-2.5v-37.3H311z M311.1,289.3
		c6.9,0,10-4.6,10-9.2c0-4.6-3.2-9.2-10-9.2h-28.9v18.5H311.1z"/>
	<path class="st1" d="M331.8,268.6h31.8c9,0,12.6,5.1,12.6,11c0,5.5-3.3,9.3-8.7,10.3c5,1.2,7.6,4.7,7.6,9.3v6.7h-2.5v-6.8
		c0-4.9-3.5-8.2-9.5-8.2h-28.9v15h-2.4V268.6z M363.6,288.8c7.4,0,10-4.7,10-9c0-4.3-2.5-9-10-9h-29.5v18H363.6z"/>
	<path class="st1" d="M434.3,287.3c0,15.7-9.7,19.2-25.3,19.2c-15.7,0-25.3-3.4-25.3-19.2c0-15.7,9.7-19.1,25.3-19.1
		C424.7,268.2,434.3,271.6,434.3,287.3z M431.9,287.3c0-14.1-8.5-16.8-22.9-16.8c-14.4,0-22.9,2.7-22.9,16.8
		c0,14.1,8.5,16.8,22.9,16.8C423.4,304.1,431.9,301.4,431.9,287.3z"/>
	<path class="st1" d="M473.3,303.7c7,0,10.6-2.6,10.6-7.4c0-4.6-3.3-7-11.1-7.6l-18.7-1.6c-8.2-0.7-12.3-3.7-12.3-9.5
		c0-6.1,4.5-9,11.5-9h30.3v2.2h-30.5c-5.6,0-8.8,2.1-8.8,6.7c0,4.4,3.1,6.7,10.4,7.3l18.5,1.5c8.8,0.8,13.3,3.7,13.3,9.9
		c0,6.1-4.3,9.7-13.2,9.7h-32.4v-2.2H473.3z"/>
	<path class="st1" d="M526,268.6c8.1,0,12.7,5,12.7,11.5c0,6.4-4.6,11.5-12.7,11.5h-28.8V306h-2.5v-37.3H526z M526.1,289.3
		c6.9,0,10-4.6,10-9.2c0-4.6-3.2-9.2-10-9.2h-28.9v18.5H526.1z"/>
	<path class="st1" d="M562.2,271c-10.3,0-14.7,4.9-14.9,15.2h43.1v2.2h-43.1c0.2,10.3,4.6,15.2,14.9,15.2h29.2v2.3h-29.2
		c-12.2,0-17.4-6.1-17.4-18.7c0-12.5,5.2-18.6,17.4-18.6h29.2v2.3H562.2z"/>
	<path class="st1" d="M644.7,271h-29.2c-10.8,0-14.8,5.2-14.8,16.2c0,11.1,4.2,16.3,14.8,16.3h29.2v2.4h-29.2
		c-12,0-17.4-6-17.4-18.7c0-12.5,5.2-18.6,17.4-18.6h29.2V271z"/>
	<path class="st1" d="M668.4,306v-35.1h-20.7v-2.2h43.8v2.2h-20.7V306H668.4z"/>
</g>
<g>
	<radialGradient id="SVGID_1_" cx="174.9289" cy="305.9604" r="75.1708" gradientUnits="userSpaceOnUse">
		<stop  offset="0" style="stop-color:#2E2E2E"/>
		<stop  offset="0.5711" style="stop-color:#424244"/>
		<stop  offset="1" style="stop-color:#4D4D4F"/>
	</radialGradient>
	<path class="st2" d="M250.1,350c0,17.2-13.9,31.1-31.1,31.1h-88.1c-17.2,0-31.1-13.9-31.1-31.1v-88.1c0-17.2,13.9-31.1,31.1-31.1
		H219c17.2,0,31.1,13.9,31.1,31.1V350z"/>
	<g>
		<rect x="171.2" y="309.8" class="st0" width="7.1" height="27.7"/>
		<rect x="171.2" y="274.3" class="st0" width="7.1" height="27.7"/>
		<path class="st3" d="M216.1,274.3h-44.5v7.7l6.7,0.1h38.2c7.9,0,11.1,5.4,11.1,9.9c0,4.6-3.1,10-11.1,10h-38.2l-6.8,7.8l7.1,8.4
			v-8.4h37.5c13.9,0,20.6-8.1,20.6-17.8C236.7,282.3,230,274.3,216.1,274.3z"/>
		<path class="st4" d="M133.3,329.8c-7.9,0-11.1-5.4-11.1-9.9c0-4.6,3.1-10,11.1-10h38.2l6.8-7.8h0l-7.1-8.4v8.4h-37.5
			c-13.9,0-20.6,8.1-20.6,17.8c0,9.7,6.7,17.7,20.6,17.7h44.5v-7.7l-6.7-0.1H133.3z"/>
	</g>
</g>
</svg>
